<svg xmlns="http://www.w3.org/2000/svg" width="287" height="103" fill="none" viewBox="0 0 287 103">
  <path fill="#C1AB81" d="M29.169 0H.499L0 5.415h.062C4.497 3.298 7.37.995 10.681.995h1.311V40.08h5.684V.996h1.25c3.31 0 6.308 2.365 10.743 4.48h.124L29.17 0Zm35.264 0v18.733H44.758V0h-5.621v40.08h5.621V19.729h19.675v20.35h5.621V0h-5.621Zm26.964 39.084h-3.185V19.729h10.493v-.996H88.212V.996h3.185c4.747 0 10.368.373 12.492 6.037h1.187L105.013 0H82.59v40.08h22.423l.063-7.033h-1.187c-2.124 5.664-7.745 6.037-12.492 6.037ZM185.043 0c-1.687 5.228-3.061 9.21-5.934 17.24l-4.872 14.065L163.494 0h-.25l-10.993 31.305L141.508 0h-5.996l14.241 40.951h.187l11.056-31.367 10.868 31.367h.187l8.12-23.338c2.436-6.846 4.185-11.887 6.558-17.613h-1.686Zm16.694 40.08V0h-5.621v40.08h5.621Zm33.879-7.033c-2.123 5.664-7.745 6.037-12.492 6.037h-3.185V0h-5.622v40.08h22.423l.063-7.033h-1.187ZM260.479 0h-14.053v40.08h13.116c13.679 0 22.236-7.53 22.236-20.476C281.778 6.908 273.221 0 260.479 0Zm0 39.209c-4.435 0-6.995-.187-8.432-.498V.934h7.932c9.494 0 15.615 7.592 15.615 18.981 0 12.323-5.496 19.294-15.115 19.294ZM9.533 102.315v-40.08H3.91v40.08h5.622ZM34.142 62.36v-.124h-2.124c-3.06 2.925-6.87 6.472-12.804 12.073l-7.932 7.469 13.803 20.537h7.433l-16.614-23.4 3.997-3.797c5.122-4.854 9.556-8.962 14.241-12.758Zm14.88 39.955v-40.08H43.4v40.08h5.622ZM88.46 62.236V93.29L66.41 62.236h-6.682v.186l2.685 3.734v36.097h1.125v-34.54L89.084 103h.5V62.236h-1.125Zm34.154 21.907.625.995h9.244v13.568c-2.436 1.929-6.184 3.298-10.244 3.298-9.369 0-15.552-8.153-15.552-19.79 0-11.95 5.621-19.73 14.428-19.73 2.873 0 4.56 1.743 5.809 4.046 1.999 3.61 6.808 4.419 9.744 1.556l.125-.062c-3.311-3.672-8.682-6.41-15.178-6.41-12.055 0-21.112 8.214-21.112 20.973 0 12.882 8.557 20.413 21.486 20.413 7.121 0 12.118-2.427 15.678-5.041V84.143h-15.053Zm40.314-21.907h-14.053v40.079h13.116c13.679 0 22.236-7.53 22.236-20.475 0-12.696-8.557-19.604-21.299-19.604Zm0 39.208c-4.435 0-6.995-.187-8.432-.498V63.169h7.932c9.494 0 15.615 7.593 15.615 18.982 0 12.323-5.496 19.293-15.115 19.293Zm51.818-39.831c-11.992 0-21.236 8.215-21.236 21.098 0 12.634 9.057 20.289 20.549 20.289 11.93 0 21.237-8.215 21.237-21.098 0-12.634-9.057-20.289-20.55-20.289Zm-.124 40.516c-8.807 0-14.928-8.029-14.928-20.04 0-11.825 5.746-19.604 14.615-19.604 8.682 0 14.803 8.028 14.803 20.04 0 11.824-5.746 19.604-14.49 19.604Zm68.568-39.893h-5.059l-11.68 29.5-13.304-29.5h-6.059v.186l1.187 2.614-3.498 37.217h1.062l3.31-35.163 14.991 32.736h.249l13.492-34.105 3.435 36.594H287l-3.81-40.08Z"/>
</svg>
