<svg xmlns="http://www.w3.org/2000/svg" width="26" height="25" fill="none" viewBox="0 0 26 25">
  <path fill="#9D875C" fill-rule="evenodd" d="M4.657 23.718c-.126.72.585 1.285 1.213.962l7.132-3.666 7.133 3.666c.628.323 1.339-.241 1.212-.962L20 16.032l5.724-5.454c.535-.51.258-1.442-.459-1.544l-7.96-1.13-3.55-7.031a.834.834 0 0 0-1.505 0L8.7 7.903.74 9.035c-.716.102-.993 1.034-.458 1.544l5.724 5.454-1.349 7.686Zm7.97-4.498-5.99 3.078 1.13-6.43a.917.917 0 0 0-.265-.822l-4.724-4.5 6.585-.936a.853.853 0 0 0 .638-.467l3.001-5.945 3.001 5.945a.853.853 0 0 0 .639.467l6.585.935-4.724 4.502a.917.917 0 0 0-.264.82l1.128 6.431-5.99-3.078a.817.817 0 0 0-.75 0Z" clip-rule="evenodd"/>
</svg>
