<svg xmlns="http://www.w3.org/2000/svg" width="82" height="69" fill="none" viewBox="0 0 82 69">
  <path stroke="#000" stroke-linecap="round" stroke-linejoin="round" stroke-width="2" d="m16.108 15.603-1.408.826m-4.26 2.499L1 24.465l6.79 10.352L41 15.808l33.21 19.008L81 24.464S41.07 1.047 40.999 1c-.037.024-10.39 6.098-20.816 12.212m48.95 37.964V31.911m-56.267 0v30.553a4.992 4.992 0 0 0 4.99 4.991h2.872a5.16 5.16 0 0 0 5.16-5.16V43.472a4.574 4.574 0 0 1 4.573-4.573H51.54a4.572 4.572 0 0 1 4.573 4.574v12.26m18.406 2.4a4.528 4.528 0 0 0 .92-3.909 4.512 4.512 0 0 0-8.901 1.034c0 .16.01.475.01.475H50.005s.015-.396.01-.598c-.063-2.33-1.966-4.275-4.294-4.382a4.506 4.506 0 0 0-4.69 5.03 4.51 4.51 0 0 0 1.015 2.363 1.952 1.952 0 0 1-.01 2.464 4.528 4.528 0 0 0-.921 3.908 4.511 4.511 0 0 0 8.901-1.033c0-.16-.01-.475-.01-.475h16.541s-.014.396-.008.598c.06 2.33 1.962 4.273 4.288 4.382a4.508 4.508 0 0 0 4.695-5.03 4.51 4.51 0 0 0-1.015-2.363 1.951 1.951 0 0 1 .011-2.464Z"/>
</svg>
