<svg xmlns="http://www.w3.org/2000/svg" width="62" height="77" fill="none" viewBox="0 0 62 77">
  <path stroke="#222220" stroke-linecap="round" stroke-linejoin="round" stroke-width="2" d="M11.672 46.616 1.154 65.717a1.232 1.232 0 0 0 .09 1.332c.142.191.336.339.56.426a1.3 1.3 0 0 0 .705.069l9.402-1.695a1.3 1.3 0 0 1 .837.13c.256.135.458.353.57.615l3.714 8.64c.094.218.248.405.446.54a1.294 1.294 0 0 0 1.855-.431L26.61 62.13m28.164-7.443 6.073 11.03a1.233 1.233 0 0 1-.09 1.332 1.275 1.275 0 0 1-.56.427 1.301 1.301 0 0 1-.705.068l-9.404-1.695a1.3 1.3 0 0 0-.838.13 1.262 1.262 0 0 0-.57.615l-3.714 8.64a1.258 1.258 0 0 1-.446.54 1.294 1.294 0 0 1-1.855-.431L32.384 56.67m25.719-33.514-1.442 4.353a4.526 4.526 0 0 0 0 2.855l1.442 4.351a4.534 4.534 0 0 1 0 2.854 4.625 4.625 0 0 1-1.711 2.31l-3.777 2.69a4.626 4.626 0 0 0-1.712 2.31l-1.442 4.351a4.623 4.623 0 0 1-1.711 2.31 4.774 4.774 0 0 1-2.77.882h-4.666a4.78 4.78 0 0 0-2.77.882l-3.777 2.69a4.774 4.774 0 0 1-2.769.882 4.775 4.775 0 0 1-2.77-.882l-3.776-2.69a4.773 4.773 0 0 0-2.769-.882h-4.667a4.775 4.775 0 0 1-2.77-.882 4.625 4.625 0 0 1-1.71-2.31l-1.443-4.351a4.63 4.63 0 0 0-1.711-2.31l-3.777-2.69a4.625 4.625 0 0 1-1.712-2.31 4.533 4.533 0 0 1 0-2.854l1.443-4.351a4.54 4.54 0 0 0 0-2.855l-1.443-4.352a4.532 4.532 0 0 1 0-2.855 4.624 4.624 0 0 1 1.712-2.31l3.777-2.69a4.628 4.628 0 0 0 1.711-2.308l1.442-4.353a4.626 4.626 0 0 1 1.714-2.307 4.776 4.776 0 0 1 2.77-.88h4.672a4.78 4.78 0 0 0 2.769-.882l3.777-2.69A4.774 4.774 0 0 1 31.006 1c.995 0 1.964.309 2.769.882l3.777 2.69a4.78 4.78 0 0 0 2.77.882h4.666c.995 0 1.964.309 2.77.882a4.625 4.625 0 0 1 1.71 2.31l1.443 4.351a4.625 4.625 0 0 0 1.712 2.31l3.777 2.69a4.625 4.625 0 0 1 1.705 2.308 4.534 4.534 0 0 1-.002 2.852ZM41.801 34.73c0 4.24-4.836 7.677-10.802 7.677-5.965 0-10.801-3.437-10.801-7.677S25.034 27.053 31 27.053c5.965 0 10.801 3.437 10.801 7.677Zm-18.38-13.29c.818 2.346-.113 4.782-2.08 5.441-1.966.66-4.224-.708-5.041-3.054-.818-2.346.113-4.782 2.08-5.441 1.966-.66 4.224.708 5.042 3.054Zm20.204-3.045c1.966.66 2.898 3.095 2.08 5.441-.818 2.346-3.075 3.714-5.042 3.055-1.966-.66-2.898-3.095-2.08-5.441.818-2.346 3.075-3.714 5.042-3.055Zm-8.862 1.559c0 2.48-1.685 4.489-3.763 4.489-2.079 0-3.764-2.01-3.764-4.489 0-2.48 1.685-4.489 3.764-4.489 2.078 0 3.763 2.01 3.763 4.489Z"/>
</svg>
