<svg xmlns="http://www.w3.org/2000/svg" width="70" height="70" fill="none" viewBox="0 0 70 70">
  <path stroke="#000" stroke-linecap="round" stroke-linejoin="round" stroke-width="2" d="M25.945 29.279 45.922 9.3a3.191 3.191 0 0 1 4.514 0l10.267 10.263a3.193 3.193 0 0 1 0 4.514L21.829 62.95a3.194 3.194 0 0 1-4.514 0L7.048 52.689a3.191 3.191 0 0 1 0-4.514l8.571-8.57m3.478-3.478 3.067-3.067m5.665 23.888-3.299-3.299m10.015-3.418-3.299-3.299M47.978 36.8l-3.299-3.3m10.015-3.417-3.299-3.299M41.262 43.515l-3.3-3.299M7.537 62.463 1 69m68-54.597L55.597 1M5.686 56.612l2.64-2.64 7.702 7.7-2.64 2.641a2.828 2.828 0 0 1-4 0l-3.703-3.702a2.829 2.829 0 0 1 .001-4ZM52.68 11.544l6.73-6.73 5.777 5.776-6.731 6.73-5.776-5.776Z"/>
</svg>
